<?xml version="1.0" encoding="UTF-8" standalone="no"?>
<svg xmlns:svg="http://www.w3.org/2000/svg" xmlns="http://www.w3.org/2000/svg" xmlns:sodipodi="http://sodipodi.sourceforge.net/DTD/sodipodi-0.dtd" xmlns:inkscape="http://www.inkscape.org/namespaces/inkscape" width="64" height="64" viewBox="0 0 64 64" version="1.1" id="svg" inkscape:version="0.92.3 (2405546, 2018-03-11)" sodipodi:docname="pma-logo-sailboat-2018.svg">
 <sodipodi:namedview id="svgbase" pagecolor="#fff" bordercolor="#666" borderopacity="1.0" inkscape:pageopacity="0.0" inkscape:pageshadow="2" inkscape:document-units="px" inkscape:current-layer="svg" showgrid="true" units="px">
  <inkscape:grid type="xygrid" id="xygrid" />
 </sodipodi:namedview>
 <defs id="defs" />
 <title id="title">phpMyAdmin Sailboat</title>
 <metadata id="meta">
  <rdf:RDF>
   <cc:Work rdf:about="">
    <dc:title>phpMyAdmin Sailboat</dc:title>
    <cc:license rdf:resource="http://creativecommons.org/licenses/by-nd/4.0/" />
    <dc:date>2018-04-30</dc:date>
    <dc:creator>
     <cc:Agent>
      <dc:title>Michael Keck, https://github.com/mkkeck</dc:title>
     </cc:Agent>
    </dc:creator>
    <dc:rights>
     <cc:Agent>
      <dc:title>(c) 2018 phpMyAdmin Team</dc:title>
     </cc:Agent>
    </dc:rights>
    <dc:format>image/svg+xml</dc:format>
    <dc:type rdf:resource="http://purl.org/dc/dcmitype/StillImage" />
   </cc:Work>
   <cc:License rdf:about="http://creativecommons.org/licenses/by-nd/4.0/">
    <cc:permits rdf:resource="http://creativecommons.org/ns#Reproduction" />
    <cc:permits rdf:resource="http://creativecommons.org/ns#Distribution" />
    <cc:requires rdf:resource="http://creativecommons.org/ns#Notice" />
    <cc:requires rdf:resource="http://creativecommons.org/ns#Attribution" />
   </cc:License>
  </rdf:RDF>
 </metadata>

 <path id="sailboat" d="M 34,4 C 30.52742,16.84016 25.78468,31.48369 16.3,47.2 L 31,45.7 Z m 2,6 c 3,9 3.3,16 4.3,19 l 3,6 c 2,3 5.7,6.7 12.7,7.7 z M 16,14 4,48.5 13,47.60039 Z m 19,10 c 0.97217,3.88868 1.96506,15.10546 1.09961,21.2 L 45.7,44.2 Z M 62,45 2,51 c 0,3.10345 2,9 6,9 14,0 28,-2 40,-2 1.2974,-0.11872 2.53704,-1.19233 3,-2 2,-5 6.21115,-7.10557 8,-8 2,-1 3,-1.96552 3,-3 z" />
</svg>
