<?xml version="1.0" encoding="UTF-8" standalone="no"?>
<!-- Created with Inkscape (http://www.inkscape.org/) -->

<svg xmlns:svg="http://www.w3.org/2000/svg" xmlns="http://www.w3.org/2000/svg" xmlns:sodipodi="http://sodipodi.sourceforge.net/DTD/sodipodi-0.dtd" xmlns:inkscape="http://www.inkscape.org/namespaces/inkscape" width="32" height="32" viewBox="0 0 32 32" version="1.1" id="svg" inkscape:version="0.92.3 (2405546, 2018-03-11)" sodipodi:docname="anchor.svg">
<defs id="defs" />
<sodipodi:namedview id="base" pagecolor="#fff" bordercolor="#666" borderopacity="1.0" inkscape:pageshadow="2" inkscape:document-units="px" inkscape:current-layer="svg" showgrid="true" units="px" showguides="true" inkscape:guide-bbox="true" gridtolerance="10">
<inkscape:grid type="xygrid" id="grid10" originx="16" originy="16" />
<sodipodi:guide position="16,34" orientation="1,0" id="guide3714" inkscape:locked="false" />
<sodipodi:guide position="34,16" orientation="0,1" id="guide3716" inkscape:locked="false" />
</sodipodi:namedview>
<path inkscape:connector-curvature="0" id="p" d="m 16,2.0000002 c -2.209139,0 -4,1.790861 -4,4 C 12.0018,7.427234 12.763978,8.786384 14,9.5 V 12 h -4 v 4 h 4 v 9.8 C 11.555456,25.389752 9.2682812,24.274377 7.5000002,22.5 L 10,20 H 2 v 8 l 2.5,-2.5 c 2.9960962,3.00192 7.258764,4.494181 11.5,4.5 4.240045,-0.0089 8.506299,-1.497365 11.5,-4.5 L 30,28 v -8 h -8 l 2.5,2.5 c -1.767638,1.773732 -4.064181,2.889366 -6.5,3.3 V 16 h 4 V 12 H 18 V 9.5 c 1.236022,-0.713616 1.998173,-2.072766 2,-3.4999998 0,-2.209139 -1.790861,-4 -4,-4 z m 0,2 c 1.104569,0 2,0.8954305 2,2 C 18,7.10457 17.104569,8 16,8 14.895431,8 14,7.10457 14,6.0000002 c 0,-1.1045695 0.895431,-2 2,-2 z" />
</svg>
