<?xml version="1.0" encoding="UTF-8" standalone="no"?>
<!-- Created with Inkscape (http://www.inkscape.org/) -->

<svg xmlns:svg="http://www.w3.org/2000/svg" xmlns="http://www.w3.org/2000/svg" xmlns:sodipodi="http://sodipodi.sourceforge.net/DTD/sodipodi-0.dtd" xmlns:inkscape="http://www.inkscape.org/namespaces/inkscape" width="32" height="32" viewBox="0 0 32 32" version="1.1" id="svg" inkscape:version="0.92.3 (2405546, 2018-03-11)" sodipodi:docname="column-plus.svg">
<defs id="defs" />
<sodipodi:namedview id="base" pagecolor="#fff" bordercolor="#666" borderopacity="1.0" inkscape:pageshadow="2" inkscape:document-units="px" inkscape:current-layer="svg" showgrid="true" units="px" showguides="true" inkscape:guide-bbox="true" gridtolerance="10">
<inkscape:grid type="xygrid" id="grid10" originx="16" originy="16" />
<sodipodi:guide position="16,34" orientation="1,0" id="guide3714" inkscape:locked="false" />
<sodipodi:guide position="34,16" orientation="0,1" id="guide3716" inkscape:locked="false" />
</sodipodi:namedview>
<path d="M 14 2 L 14 30 L 17.5 30 C 16.508046 28.52096 16.002576 26.780878 16 25 C 16.0028 22.945355 16.708571 20.998448 18 19.400391 L 18 2 L 14 2 z M 4 6 L 4 26 L 12 26 L 12 6 L 4 6 z M 20 6 L 20 17.5 C 20.622505 17.084823 21.294356 16.748898 22 16.5 L 22 14 L 26 14 L 26 16.099609 C 26.682294 16.178389 27.353329 16.268597 28 16.5 L 28 6 L 20 6 z M 6 8 L 10 8 L 10 12 L 6 12 L 6 8 z M 22 8 L 26 8 L 26 12 L 22 12 L 22 8 z M 6 14 L 10 14 L 10 18 L 6 18 L 6 14 z M 25 18 A 7 7 0 0 0 18 25 A 7 7 0 0 0 25 32 A 7 7 0 0 0 32 25 A 7 7 0 0 0 25 18 z M 6 20 L 10 20 L 10 24 L 6 24 L 6 20 z M 24 20 L 26 20 L 26 24 L 30 24 L 30 26 L 26 26 L 26 30 L 24 30 L 24 26 L 20 26 L 20 24 L 24 24 L 24 20 z " id="p" />
</svg>
