<?xml version="1.0" encoding="UTF-8" standalone="no"?>
<!-- Created with Inkscape (http://www.inkscape.org/) -->

<svg xmlns:svg="http://www.w3.org/2000/svg" xmlns="http://www.w3.org/2000/svg" xmlns:sodipodi="http://sodipodi.sourceforge.net/DTD/sodipodi-0.dtd" xmlns:inkscape="http://www.inkscape.org/namespaces/inkscape" width="32" height="32" viewBox="0 0 32 32" version="1.1" id="svg" inkscape:version="0.92.3 (2405546, 2018-03-11)" sodipodi:docname="column-minus.svg">
<defs id="defs" />
<sodipodi:namedview id="base" pagecolor="#fff" bordercolor="#666" borderopacity="1.0" inkscape:pageshadow="2" inkscape:document-units="px" inkscape:current-layer="svg" showgrid="true" units="px" showguides="true" inkscape:guide-bbox="true" gridtolerance="10">
<inkscape:grid type="xygrid" id="grid10" originx="16" originy="16" />
<sodipodi:guide position="16,34" orientation="1,0" id="guide3714" inkscape:locked="false" />
<sodipodi:guide position="34,16" orientation="0,1" id="guide3716" inkscape:locked="false" />
</sodipodi:namedview>
<path d="m 14,2 v 28 h 3.5 c -0.991954,-1.47904 -1.497424,-3.219122 -1.5,-5 0.0028,-2.054645 0.708571,-4.001552 2,-5.599609 V 2 Z M 4,6 v 20 h 8 V 6 Z m 16,0 v 11.5 c 0.622505,-0.415177 1.294356,-0.751102 2,-1 V 14 h 4 v 2.099609 c 0.682294,0.07878 1.353329,0.168988 2,0.400391 V 6 Z M 6,8 h 4 v 4 H 6 Z m 16,0 h 4 v 4 H 22 Z M 6,14 h 4 v 4 H 6 Z m 19,4 c -3.865993,0 -7,3.134007 -7,7 0,3.865993 3.134007,7 7,7 3.865993,0 7,-3.134007 7,-7 0,-3.865993 -3.134007,-7 -7,-7 z M 6,20 h 4 v 4 H 6 Z m 24,4 v 2 H 20 v -2 z" id="p" inkscape:connector-curvature="0" />
</svg>
