<?xml version="1.0" encoding="UTF-8" standalone="no"?>
<!-- Created with Inkscape (http://www.inkscape.org/) -->

<svg xmlns:svg="http://www.w3.org/2000/svg" xmlns="http://www.w3.org/2000/svg" xmlns:sodipodi="http://sodipodi.sourceforge.net/DTD/sodipodi-0.dtd" xmlns:inkscape="http://www.inkscape.org/namespaces/inkscape" width="32" height="32" viewBox="0 0 32 32" version="1.1" id="svg" inkscape:version="0.92.3 (2405546, 2018-03-11)" sodipodi:docname="col-move.svg">
<defs id="defs" />
<sodipodi:namedview id="base" pagecolor="#fff" bordercolor="#666" borderopacity="1.0" inkscape:pageshadow="2" inkscape:document-units="px" inkscape:current-layer="svg" showgrid="true" units="px" showguides="true" inkscape:guide-bbox="true" gridtolerance="10">
<inkscape:grid type="xygrid" id="grid10" originx="16" originy="16" />
<sodipodi:guide position="16,34" orientation="1,0" id="guide3714" inkscape:locked="false" />
<sodipodi:guide position="34,16" orientation="0,1" id="guide3716" inkscape:locked="false" />
</sodipodi:namedview>
<path d="m 2,10 6,6 6,-6 H 10 V 9 c 0,-1.656854 2.686292,-3 6,-3 3.313708,0 6,1.343146 6,3 v 1 h -4 l 6,6 6,-6 H 26 V 9 C 26,5.134007 21.522847,2 16,2 10.477153,2 6,5.134007 6,9 v 1 z m 2,20 h 2 v -4 h 4 v 4 h 2 V 18 H 4 Z m 2,-6 v -4 h 4 v 4 z m 8,6 h 4 V 14 h -4 z m 6,0 h 2 v -4 h 4 v 4 h 2 V 18 h -8 z m 2,-6 v -4 h 4 v 4 z" id="p" inkscape:connector-curvature="0" />
</svg>
