<?xml version="1.0" encoding="UTF-8" standalone="no"?>
<!-- Created with Inkscape (http://www.inkscape.org/) -->

<svg xmlns:svg="http://www.w3.org/2000/svg" xmlns="http://www.w3.org/2000/svg" xmlns:sodipodi="http://sodipodi.sourceforge.net/DTD/sodipodi-0.dtd" xmlns:inkscape="http://www.inkscape.org/namespaces/inkscape" width="32" height="32" viewBox="0 0 32 32" version="1.1" id="svg" inkscape:version="0.92.3 (2405546, 2018-03-11)" sodipodi:docname="b_cross-alt.svg">
<defs id="defs" />
<sodipodi:namedview id="base" pagecolor="#fff" bordercolor="#666" borderopacity="1.0" inkscape:pageshadow="2" inkscape:document-units="px" inkscape:current-layer="svg" showgrid="true" units="px" showguides="true" inkscape:guide-bbox="true">
<inkscape:grid type="xygrid" id="grid10" originx="16" originy="16" />
<sodipodi:guide position="16,34" orientation="1,0" id="guide3714" inkscape:locked="false" />
<sodipodi:guide position="34,16" orientation="0,1" id="guide3716" inkscape:locked="false" />
</sodipodi:namedview>
<path id="p" inkscape:connector-curvature="0" d="M 16,2.0000003 C 8.2680135,2.0000003 2,8.268014 2,16 2,23.731986 8.2680135,30 16,30 23.731986,30 30,23.731986 30,16 30,8.268014 23.731986,2.0000003 16,2.0000003 Z m 0,3 C 22.075132,5.0000003 27,9.924868 27,16 27,22.075132 22.075132,27 16,27 9.9248678,27 5,22.075132 5,16 5,9.924868 9.9248678,5.0000003 16,5.0000003 Z M 12,9 l -3,3 4,4 -4,4 3,3 4,-4 4,4 3,-3 -4,-4 4,-4 -3,-3 -4,4 z" />
</svg>
