<?xml version="1.0" encoding="UTF-8" standalone="no"?>
<!-- Created with Inkscape (http://www.inkscape.org/) -->

<svg xmlns:svg="http://www.w3.org/2000/svg" xmlns="http://www.w3.org/2000/svg" xmlns:sodipodi="http://sodipodi.sourceforge.net/DTD/sodipodi-0.dtd" xmlns:inkscape="http://www.inkscape.org/namespaces/inkscape" width="32" height="32" viewBox="0 0 32 32" version="1.1" id="svg" inkscape:version="0.92.3 (2405546, 2018-03-11)" sodipodi:docname="s_db.svg">
<defs id="defs" />
<sodipodi:namedview id="base" pagecolor="#fff" bordercolor="#666" borderopacity="1.0" inkscape:pageshadow="2" inkscape:document-units="px" inkscape:current-layer="svg" showgrid="true" units="px" showguides="true" inkscape:guide-bbox="true" gridtolerance="10" inkscape:snap-bbox="true">
<inkscape:grid type="xygrid" id="grid10" originx="16" originy="16" />
<sodipodi:guide position="16,34" orientation="1,0" id="guide3714" inkscape:locked="false" />
<sodipodi:guide position="34,16" orientation="0,1" id="guide3716" inkscape:locked="false" />
</sodipodi:namedview>
<path d="M 16,2 A 12,5 0 0 0 4,7 v 4 c 0,2.761424 5.372583,5 12,5 6.627417,0 12,-2.238576 12,-5 V 7 A 12,5 0 0 0 16,2 Z m 0,2 A 9,3.5 0 0 1 25,7.5 9,3.5 0 0 1 16,11 9,3.5 0 0 1 7,7.5 9,3.5 0 0 1 16,4 Z M 4,13 v 4 1 c 0,2.761424 5.372583,5 12,5 6.627417,0 12,-2.238576 12,-5 V 17 13 A 12,5 0 0 1 16,18 12,5 0 0 1 4,13 Z m 0,7 v 1 3 1 c 0,2.761424 5.372583,5 12,5 6.627417,0 12,-2.238576 12,-5 V 24 21 20 A 12,5 0 0 1 16,25 12,5 0 0 1 4,20 Z" id="p" inkscape:connector-curvature="0" />
</svg>
