<?xml version="1.0" encoding="UTF-8" standalone="no"?>
<!-- Created with Inkscape (http://www.inkscape.org/) -->

<svg xmlns:svg="http://www.w3.org/2000/svg" xmlns="http://www.w3.org/2000/svg" xmlns:sodipodi="http://sodipodi.sourceforge.net/DTD/sodipodi-0.dtd" xmlns:inkscape="http://www.inkscape.org/namespaces/inkscape" width="32" height="32" viewBox="0 0 32 32" version="1.1" id="svg" inkscape:version="0.92.3 (2405546, 2018-03-11)" sodipodi:docname="edit-inline.svg">
<defs id="defs" />
<sodipodi:namedview id="base" pagecolor="#fff" bordercolor="#666" borderopacity="1.0" inkscape:pageshadow="2" inkscape:document-units="px" inkscape:current-layer="svg" showgrid="true" units="px" showguides="true" inkscape:guide-bbox="true" gridtolerance="10">
<inkscape:grid type="xygrid" id="grid10" originx="16" originy="16" />
<sodipodi:guide position="34,16" orientation="0,1" id="guide3716" inkscape:locked="false" />
<sodipodi:guide position="16,35" orientation="1,0" id="guide23" inkscape:locked="false" />
</sodipodi:namedview>
<path d="M 2,2 V 16 L 4,14 V 4 H 14 L 16,2 Z M 24.019531,2.023437 C 23.344656,2.0170625 22.6635,2.3365 22,3 l -2,2 7,7 2,-2 C 30.338,8.5970002 30.317,7.256 29,6 L 26,3 C 25.3625,2.362 24.694406,2.0298125 24.019531,2.023437 Z M 19,6 2,23 v 7 H 9 L 26,13 Z m 11,10 -2,2 V 28 H 18 l -2,2 h 14 z m -24.5,6.5 4,4 L 8,28 H 6 V 26 H 4 v -2 z" id="p" inkscape:connector-curvature="0" />
</svg>
