<?xml version="1.0" encoding="UTF-8" standalone="no"?>
<!-- Created with Inkscape (http://www.inkscape.org/) -->

<svg xmlns:dc="http://purl.org/dc/elements/1.1/" xmlns:cc="http://creativecommons.org/ns#" xmlns:rdf="http://www.w3.org/1999/02/22-rdf-syntax-ns#" xmlns:svg="http://www.w3.org/2000/svg" xmlns="http://www.w3.org/2000/svg" xmlns:sodipodi="http://sodipodi.sourceforge.net/DTD/sodipodi-0.dtd" xmlns:inkscape="http://www.inkscape.org/namespaces/inkscape" width="32" height="32" viewBox="0 0 32 32" version="1.1" id="svg" inkscape:version="0.92.3 (2405546, 2018-03-11)" sodipodi:docname="b_events.svg">
<defs id="defs" />
<sodipodi:namedview id="base" pagecolor="#fff" bordercolor="#666" borderopacity="1.0" inkscape:pageshadow="2" inkscape:document-units="px" inkscape:current-layer="svg" showgrid="true" units="px" showguides="true" inkscape:guide-bbox="true">
<inkscape:grid type="xygrid" id="grid10" originx="16" originy="16" />
<sodipodi:guide position="16,34" orientation="1,0" id="guide3714" inkscape:locked="false" />
<sodipodi:guide position="34,16" orientation="0,1" id="guide3716" inkscape:locked="false" />
</sodipodi:namedview>
<path inkscape:connector-curvature="0" id="p" d="M 16,2.0000003 C 8.2680134,2.0000003 2,8.268014 2,16 2,23.731986 8.2680134,30 16,30 23.731986,30 30,23.731986 30,16 30,8.268014 23.731986,2.0000003 16,2.0000003 Z m 0,3 C 22.075132,5.0000003 27,9.924868 27,16 27,22.075132 22.075132,27 16,27 9.9248674,27 5,22.075132 5,16 5,9.924868 9.9248674,5.0000003 16,5.0000003 Z M 10.017578,8.982422 9.0000004,10 v 1 L 16,18 21,13 V 12 L 20.007812,11.007812 19,11.000012 l -3,3 -5,-5 z" />
<metadata id="metadata10">
<rdf:RDF>
<cc:Work rdf:about="">
<dc:title></dc:title>
</cc:Work>
</rdf:RDF>
</metadata>
</svg>
