<?xml version="1.0" encoding="UTF-8" standalone="no"?>
<!-- Created with Inkscape (http://www.inkscape.org/) -->

<svg xmlns:svg="http://www.w3.org/2000/svg" xmlns="http://www.w3.org/2000/svg" xmlns:sodipodi="http://sodipodi.sourceforge.net/DTD/sodipodi-0.dtd" xmlns:inkscape="http://www.inkscape.org/namespaces/inkscape" width="32" height="32" viewBox="0 0 32 32" version="1.1" id="svg" inkscape:version="0.92.3 (2405546, 2018-03-11)" sodipodi:docname="field-spatial-alt.svg">
 <defs id="defs" />
 <sodipodi:namedview id="base" pagecolor="#fff" bordercolor="#666" borderopacity="1.0" inkscape:pageshadow="2" inkscape:document-units="px" inkscape:current-layer="svg" showgrid="true" units="px" showguides="true" inkscape:guide-bbox="true" gridtolerance="10" inkscape:measure-start="0,0" inkscape:measure-end="0,0">
  <inkscape:grid type="xygrid" id="grid10" originx="16" originy="16" />
  <sodipodi:guide position="16,34" orientation="1,0" id="guide3714" inkscape:locked="false" />
  <sodipodi:guide position="34,16" orientation="0,1" id="guide3716" inkscape:locked="false" />
 </sodipodi:namedview>
 <path d="M 12 2 L 12 30 L 14 30 L 14 2 L 12 2 z M 2 6 L 2 26 L 10 26 L 10 6 L 2 6 z M 4 8 L 8 8 L 8 12 L 4 12 L 4 8 z M 19 10 L 16 13 L 18 13 L 18 22 L 27 22 L 27 24 L 30 21 L 27 18 L 27 20 L 21.5 20 L 26.5 15 L 28 16.5 L 28 12 L 23.5 12 L 25 13.5 L 20 18.5 L 20 13 L 22 13 L 19 10 z M 4 14 L 8 14 L 8 18 L 4 18 L 4 14 z M 4 20 L 8 20 L 8 24 L 4 24 L 4 20 z " id="p" />
</svg>
