<?xml version="1.0" encoding="UTF-8" standalone="no"?>
<!-- Created with Inkscape (http://www.inkscape.org/) -->

<svg xmlns:dc="http://purl.org/dc/elements/1.1/" xmlns:cc="http://creativecommons.org/ns#" xmlns:rdf="http://www.w3.org/1999/02/22-rdf-syntax-ns#" xmlns:svg="http://www.w3.org/2000/svg" xmlns="http://www.w3.org/2000/svg" xmlns:sodipodi="http://sodipodi.sourceforge.net/DTD/sodipodi-0.dtd" xmlns:inkscape="http://www.inkscape.org/namespaces/inkscape" width="32" height="32" viewBox="0 0 32 32" version="1.1" id="svg" inkscape:version="0.92.3 (2405546, 2018-03-11)" sodipodi:docname="glasses-plus.svg">
<defs id="defs" />
<sodipodi:namedview id="base" pagecolor="#fff" bordercolor="#666" borderopacity="1.0" inkscape:pageshadow="2" inkscape:document-units="px" inkscape:current-layer="svg" showgrid="true" units="px" showguides="true" inkscape:guide-bbox="true" gridtolerance="10">
<inkscape:grid type="xygrid" id="grid10" originx="16" originy="16" />
<sodipodi:guide position="16,34" orientation="1,0" id="guide3714" inkscape:locked="false" />
<sodipodi:guide position="34,16" orientation="0,1" id="guide3716" inkscape:locked="false" />
</sodipodi:namedview>
<path d="M 9,4 C 7.343146,4 6.608291,5.3748279 6,7 l -3,7 c -0.8055325,1.047259 -0.9987285,2.678776 -1,4 0,3.313708 2.6862915,6 6,6 3.313708,0 6,-2.686292 6,-6 0,-1.104569 0.895431,-2 2,-2 1.104569,0 2,0.895431 2,2 0,0.410794 0.02097,0.812413 0.09961,1.2 0.558952,-0.660279 1.17698,-1.225582 1.900391,-1.7 0.253585,-1.964902 1.966065,-3.5 4,-3.5 1.640938,0 3.083158,0.986725 3.7,2.400391 C 28.520305,16.656494 29.285249,17.022904 30,17.5 29.95243,16.283244 29.706956,14.921133 29,14 L 26,7 C 25.391709,5.3748279 24.656854,4 23,4 h -2 v 2 h 2 c 0.552285,0 0.817094,0.5215901 1,1 l 2,5.400391 C 25.355796,12.168879 24.684537,12.00244 24,12 21.816757,12.000482 19.755306,13.18879 18.699219,15.099609 17.956708,14.395425 17.023327,14.000646 16,14 14.97492,14.0023 14.042562,14.39211 13.300781,15.099609 12.247079,13.186385 10.184194,12.002763 8,12 7.3154631,12.00244 6.6442042,12.168879 6,12.400391 L 8,7 C 8.182906,6.5215901 8.447715,6 9,6 h 2 V 4 Z M 8,14 c 2.209139,0 4,1.790861 4,4 0,2.209139 -1.790861,4 -4,4 -2.209139,0 -4,-1.790861 -4,-4 0,-2.209139 1.790861,-4 4,-4 z m 17,4 c -3.865993,0 -7,3.134007 -7,7 0,3.865993 3.134007,7 7,7 3.865993,0 7,-3.134007 7,-7 0,-3.865993 -3.134007,-7 -7,-7 z m -5,6 h 4 v -4 h 2 v 4 h 4 v 2 h -4 v 4 h -2 v -4 h -4 z" id="p" inkscape:connector-curvature="0" />
<metadata id="metadata14">
<rdf:RDF>
<cc:Work rdf:about="">
<dc:title></dc:title>
</cc:Work>
</rdf:RDF>
</metadata>
</svg>
