<?xml version="1.0" encoding="UTF-8" standalone="no"?>
<!-- Created with Inkscape (http://www.inkscape.org/) -->

<svg xmlns:svg="http://www.w3.org/2000/svg" xmlns="http://www.w3.org/2000/svg" xmlns:sodipodi="http://sodipodi.sourceforge.net/DTD/sodipodi-0.dtd" xmlns:inkscape="http://www.inkscape.org/namespaces/inkscape" width="32" height="32" viewBox="0 0 32 32" version="1.1" id="svg" inkscape:version="0.92.3 (2405546, 2018-03-11)" sodipodi:docname="b_globe.svg">
<defs id="defs" />
<sodipodi:namedview id="base" pagecolor="#fff" bordercolor="#666" borderopacity="1.0" inkscape:pageshadow="2" inkscape:document-units="px" inkscape:current-layer="svg" showgrid="true" units="px" showguides="true" inkscape:guide-bbox="true" inkscape:snap-global="false">
<inkscape:grid type="xygrid" id="grid10" originx="16" originy="16" />
<sodipodi:guide position="16,34" orientation="1,0" id="guide3714" inkscape:locked="false" />
<sodipodi:guide position="34,16" orientation="0,1" id="guide3716" inkscape:locked="false" />
</sodipodi:namedview>
<path d="M 16,2 C 8.2680135,2 2,8.2680135 2,16 2,23.731986 8.2680135,30 16,30 23.731986,30 30,23.731986 30,16 30,8.2680135 23.731986,2 16,2 Z m 0,3 0.8,1.9 2,-1.5 c 0.345491,0.090129 0.664906,0.176714 1,0.3 L 18.599609,6.6 17.8,9.7 l 0.7,0.7 -0.7,1.8 2.1,2.2 2.5,-1.1 1.2,3 1.4,1 2,-1.2 C 26.94323,22.132385 22.032652,26.997054 16,27 9.9248678,27 5,22.075132 5,16 5.00426,15.776407 5.082125,15.522918 5.1,15.3 l 3,1.9 4.2,0.2 0.5,1.7 1.3,0.6 1.8,5 1.090234,0.4 L 16.9,21.4 18.1,18.8 17.6,16.7 13.3,16.1 12.2,16.5 10,16.1 11.2,14.8 12.6,10.7 10.4,9.1 7.6,9 C 9.6789642,6.496351 12.74575,5.0144007 16,5 Z" id="p" inkscape:connector-curvature="0" />
</svg>
