<?xml version="1.0" encoding="UTF-8" standalone="no"?>
<!-- Created with Inkscape (http://www.inkscape.org/) -->

<svg xmlns:svg="http://www.w3.org/2000/svg" xmlns="http://www.w3.org/2000/svg" xmlns:sodipodi="http://sodipodi.sourceforge.net/DTD/sodipodi-0.dtd" xmlns:inkscape="http://www.inkscape.org/namespaces/inkscape" width="32" height="32" viewBox="0 0 32 32" version="1.1" id="svg" inkscape:version="0.92.3 (2405546, 2018-03-11)" sodipodi:docname="b_globe-alt.svg">
<defs id="defs" />
<sodipodi:namedview id="base" pagecolor="#fff" bordercolor="#666" borderopacity="1.0" inkscape:pageshadow="2" inkscape:document-units="px" inkscape:current-layer="svg" showgrid="true" units="px" showguides="true" inkscape:guide-bbox="true" inkscape:snap-global="false">
<inkscape:grid type="xygrid" id="grid10" originx="16" originy="16" />
<sodipodi:guide position="16,34" orientation="1,0" id="guide3714" inkscape:locked="false" />
<sodipodi:guide position="34,16" orientation="0,1" id="guide3716" inkscape:locked="false" />
</sodipodi:namedview>
<path d="M 16,2 C 8.2680135,2 2,8.2680135 2,16 2,23.731986 8.2680135,30 16,30 23.731986,30 30,23.731986 30,16 30,8.2680135 23.731986,2 16,2 Z m 0,3 c 0.979548,0 1.896084,0.1597494 2.8,0.4 l -2,1.5003906 z m 3.9,0.7 C 24.092906,7.2520829 27,11.267438 27,16 l -2,1.3 -1.400391,-1 -1.199218,-3 -2.5,1.100391 L 17.8,12.2 18.5,10.400391 17.8,9.7 18.599609,6.7 Z M 7.6,9 10.400391,9.0996094 12.599609,10.7 11.2,14.8 10,16.099609 12.2,16.5 13.3,16.099609 17.599609,16.7 l 0.5,2.1 -1.199218,2.600391 0.08984,3.699218 L 15.900388,24.7 14.099606,19.7 12.8,19.099609 12.3,17.400391 8.0996094,17.2 5.1,15.3 C 5.2146934,12.994088 6.0853174,10.788029 7.6,9 Z" id="p" inkscape:connector-curvature="0" />
</svg>
