<?xml version="1.0" encoding="UTF-8" standalone="no"?>
<!-- Created with Inkscape (http://www.inkscape.org/) -->

<svg xmlns:svg="http://www.w3.org/2000/svg" xmlns="http://www.w3.org/2000/svg" xmlns:sodipodi="http://sodipodi.sourceforge.net/DTD/sodipodi-0.dtd" xmlns:inkscape="http://www.inkscape.org/namespaces/inkscape" width="32" height="32" viewBox="0 0 32 32" version="1.1" id="svg" inkscape:version="0.92.3 (2405546, 2018-03-11)" sodipodi:docname="grid.svg">
<defs id="defs" />
<sodipodi:namedview id="base" pagecolor="#fff" bordercolor="#666" borderopacity="1.0" inkscape:pageshadow="2" inkscape:document-units="px" inkscape:current-layer="svg" showgrid="true" units="px" showguides="true" inkscape:guide-bbox="true" gridtolerance="10">
<inkscape:grid type="xygrid" id="grid10" originx="16" originy="16" />
<sodipodi:guide position="16,34" orientation="1,0" id="guide3714" inkscape:locked="false" />
<sodipodi:guide position="34,16" orientation="0,1" id="guide3716" inkscape:locked="false" />
</sodipodi:namedview>
<path d="M 6,2 V 6 H 8 V 2 Z m 2,4 v 2 h 4 V 6 Z m 4,0 h 2 V 2 h -2 z m 2,0 v 2 h 4 V 6 Z m 4,0 h 2 V 2 h -2 z m 2,0 v 2 h 4 V 6 Z m 4,0 h 2 V 2 h -2 z m 2,0 v 2 h 4 V 6 Z m 0,2 h -2 v 4 h 2 z m 0,4 v 2 h 4 v -2 z m 0,2 h -2 v 4 h 2 z m 0,4 v 2 h 4 v -2 z m 0,2 h -2 v 4 h 2 z m 0,4 v 2 h 4 v -2 z m 0,2 h -2 v 4 h 2 z m -2,0 v -2 h -4 v 2 z m -4,0 h -2 v 4 h 2 z m -2,0 v -2 h -4 v 2 z m -4,0 h -2 v 4 h 2 z m -2,0 V 24 H 8 v 2 z M 8,26 H 6 v 4 H 8 Z M 6,26 V 24 H 2 v 2 z M 6,24 H 8 V 20 H 6 Z M 6,20 V 18 H 2 v 2 z M 6,18 H 8 V 14 H 6 Z M 6,14 V 12 H 2 v 2 z M 6,12 H 8 V 8 H 6 Z M 6,8 V 6 H 2 v 2 z m 2,4 v 2 h 4 v -2 z m 4,0 h 2 V 8 h -2 z m 2,0 v 2 h 4 v -2 z m 4,0 h 2 V 8 h -2 z m 2,0 v 2 h 4 v -2 z m 0,2 h -2 v 4 h 2 z m 0,4 v 2 h 4 v -2 z m 0,2 h -2 v 4 h 2 z m -2,0 v -2 h -4 v 2 z m -4,0 h -2 v 4 h 2 z m -2,0 V 18 H 8 v 2 z m 0,-2 h 2 v -4 h -2 z" id="p" inkscape:connector-curvature="0" />
</svg>
