<?xml version="1.0" encoding="UTF-8" standalone="no"?>
<!-- Created with Inkscape (http://www.inkscape.org/) -->

<svg xmlns:dc="http://purl.org/dc/elements/1.1/" xmlns:cc="http://creativecommons.org/ns#" xmlns:rdf="http://www.w3.org/1999/02/22-rdf-syntax-ns#" xmlns:svg="http://www.w3.org/2000/svg" xmlns="http://www.w3.org/2000/svg" xmlns:sodipodi="http://sodipodi.sourceforge.net/DTD/sodipodi-0.dtd" xmlns:inkscape="http://www.inkscape.org/namespaces/inkscape" width="32" height="32" viewBox="0 0 32 32" version="1.1" id="svg" inkscape:version="0.92.3 (2405546, 2018-03-11)" sodipodi:docname="__src.svg">
<metadata id="metadata8">
<rdf:RDF>
<cc:Work rdf:about="">
<dc:format>image/svg+xml</dc:format>
<dc:type rdf:resource="http://purl.org/dc/dcmitype/StillImage" />
<dc:title></dc:title>
</cc:Work>
</rdf:RDF>
</metadata>
<defs id="defs" />
<sodipodi:namedview id="base" pagecolor="#fff" bordercolor="#666" borderopacity="1.0" inkscape:pageshadow="2" inkscape:document-units="px" inkscape:current-layer="svg" showgrid="true" units="px" showguides="true" inkscape:guide-bbox="true">
<inkscape:grid type="xygrid" id="grid10" originx="16" originy="16" />
<sodipodi:guide position="16,34" orientation="1,0" id="guide3714" inkscape:locked="false" />
<sodipodi:guide position="34,16" orientation="0,1" id="guide3716" inkscape:locked="false" />
</sodipodi:namedview>
<path id="path29" inkscape:connector-curvature="0" d="M 16,2 C 8.2680131,2 2,8.268014 2,16 2.00311,19.783704 3.5836892,23.365977 6.3,26 L 2,30 H 12 V 20 L 8.4000001,23.9 C 6.2457674,21.830251 5.004915,18.987399 5,16 5,9.924868 9.9248681,5 16,5 c 6.075132,0 11,4.924868 11,11 -3.53e-4,4.531107 -2.779089,8.552325 -7,10.2 v 3.2 C 25.931043,27.631705 29.997236,22.189033 30,16 30,8.268014 23.731986,2 16,2 Z M 11,9 9.0000001,11 16,18 l 5,-5 -2,-2 -3,3 z" />
</svg>
