<?xml version="1.0" encoding="UTF-8" standalone="no"?>
<!-- Created with Inkscape (http://www.inkscape.org/) -->

<svg xmlns:svg="http://www.w3.org/2000/svg" xmlns="http://www.w3.org/2000/svg" xmlns:sodipodi="http://sodipodi.sourceforge.net/DTD/sodipodi-0.dtd" xmlns:inkscape="http://www.inkscape.org/namespaces/inkscape" width="32" height="32" viewBox="0 0 32 32" version="1.1" id="svg" inkscape:version="0.92.3 (2405546, 2018-03-11)" sodipodi:docname="language.svg">
<defs id="defs" />
<sodipodi:namedview id="base" pagecolor="#fff" bordercolor="#666" borderopacity="1.0" inkscape:pageshadow="2" inkscape:document-units="px" inkscape:current-layer="svg" showgrid="true" units="px" showguides="true" inkscape:guide-bbox="true" gridtolerance="10">
<inkscape:grid type="xygrid" id="grid10" originx="16" originy="16" />
<sodipodi:guide position="16,34" orientation="1,0" id="guide3714" inkscape:locked="false" />
<sodipodi:guide position="34,16" orientation="0,1" id="guide3716" inkscape:locked="false" />
</sodipodi:namedview>
<path inkscape:connector-curvature="0" id="p" d="m 3.9999998,2.0000001 c -1,0 -2,1 -2,2 V 12 c 0,1 1,2 2,2 h 2 v 8 L 14,14 h 6 c 1,0 2,-1 2,-2 V 4.0000001 c 0,-1 -1,-2 -2,-2 z m 0,2 H 20 V 12 h -8 v 1 l -4.0000002,4 v -5 h -4 z M 24,10 v 4 c 0,1 -1,2 -2,2 h -6 l -5.400391,5.400391 C 10.974609,21.775391 11.5,22 12,22 h 6 l 8,8 v -8 h 2 c 1,0 2,-1 2,-2 v -8 c 0,-1 -1,-2 -2,-2 z" />
</svg>
