<?xml version="1.0" encoding="UTF-8" standalone="no"?>
<!-- Created with Inkscape (http://www.inkscape.org/) -->

<svg xmlns:svg="http://www.w3.org/2000/svg" xmlns="http://www.w3.org/2000/svg" xmlns:sodipodi="http://sodipodi.sourceforge.net/DTD/sodipodi-0.dtd" xmlns:inkscape="http://www.inkscape.org/namespaces/inkscape" width="32" height="32" viewBox="0 0 32 32" version="1.1" id="svg" inkscape:version="0.92.3 (2405546, 2018-03-11)" sodipodi:docname="lightbulb_off.svg">
<defs id="defs" />
<sodipodi:namedview id="base" pagecolor="#fff" bordercolor="#666" borderopacity="1.0" inkscape:pageshadow="2" inkscape:document-units="px" inkscape:current-layer="svg" showgrid="true" units="px" showguides="true" inkscape:guide-bbox="true">
<inkscape:grid type="xygrid" id="grid10" originx="16" originy="16" />
<sodipodi:guide position="16,34" orientation="1,0" id="guide3714" inkscape:locked="false" />
<sodipodi:guide position="34,16" orientation="0,1" id="guide3716" inkscape:locked="false" />
</sodipodi:namedview>
<path id="p" d="M 15.95,2.0000005 C 10,2.0000005 6,5.0825005 6,10 c 0,6 6,6 6,14 h 8 C 20,16 26,16 26,10 26,5.0825005 22,2.0000005 15.95,2.0000005 Z M 18.3,22 H 13.7 C 13.7,16 8,14 8,10 8,6 12,4.0000005 15.95,4.0000005 20,4.0000005 24,6 24,10 c 0,4 -5.7,6 -5.7,12 z M 12,26 h 8 c 0,2 -1.95,4 -4.05,4 C 13.85,30 12,28 12,26 Z" inkscape:connector-curvature="0" />
</svg>
