<?xml version="1.0" encoding="UTF-8" standalone="no"?>
<!-- Created with Inkscape (http://www.inkscape.org/) -->

<svg xmlns:dc="http://purl.org/dc/elements/1.1/" xmlns:cc="http://creativecommons.org/ns#" xmlns:rdf="http://www.w3.org/1999/02/22-rdf-syntax-ns#" xmlns:svg="http://www.w3.org/2000/svg" xmlns="http://www.w3.org/2000/svg" xmlns:sodipodi="http://sodipodi.sourceforge.net/DTD/sodipodi-0.dtd" xmlns:inkscape="http://www.inkscape.org/namespaces/inkscape" width="32" height="32" viewBox="0 0 32 32" version="1.1" id="svg" inkscape:version="0.92.3 (2405546, 2018-03-11)" sodipodi:docname="s_unlink.svg">
<metadata id="metadata8">
<rdf:RDF>
<cc:Work rdf:about="">
<dc:format>image/svg+xml</dc:format>
<dc:type rdf:resource="http://purl.org/dc/dcmitype/StillImage" />
<dc:title></dc:title>
</cc:Work>
</rdf:RDF>
</metadata>
<defs id="defs" />
<sodipodi:namedview id="base" pagecolor="#fff" bordercolor="#666" borderopacity="1.0" inkscape:pageshadow="2" inkscape:document-units="px" inkscape:current-layer="svg" showgrid="true" units="px" showguides="true" inkscape:guide-bbox="true">
<inkscape:grid type="xygrid" id="grid10" originx="16" originy="16" />
<sodipodi:guide position="16,34" orientation="1,0" id="guide3714" inkscape:locked="false" />
<sodipodi:guide position="34,16" orientation="0,1" id="guide3716" inkscape:locked="false" />
</sodipodi:namedview>
<path inkscape:connector-curvature="0" id="p" d="m 9.9999997,2.0000005 v 6 H 12 v -6 z m 13.0000003,0 c -0.745356,0 -1.472954,0.472954 -2,1 l -5,5 h 4 l 3,-3 4,4 L 16,20 h 4 l 9,-9 c 0.527046,-0.527046 1,-1.254644 1,-1.9999995 0,-0.745356 -0.472954,-1.472954 -1,-2 l -4,-4 c -0.527046,-0.527046 -1.254644,-1 -2,-1 z M 2,10 v 2 h 6 v -2 z m 10,2 -9,9 c -0.5270461,0.527046 -1,1.254644 -1,2 0,0.745356 0.4729537,1.472954 1,2 l 4,4 c 0.5270463,0.527046 1.254644,1 1.9999997,1 C 9.7453557,30 10.472954,29.527046 11,29 l 5,-5 H 12 L 8.9999997,27 5,23 16,12 Z m 12,8 v 2 h 6 v -2 z m -4,4 v 6 h 2 v -6 z" />
</svg>
