<?xml version="1.0" encoding="UTF-8" standalone="no"?>
<!-- Created with Inkscape (http://www.inkscape.org/) -->

<svg xmlns:svg="http://www.w3.org/2000/svg" xmlns="http://www.w3.org/2000/svg" xmlns:sodipodi="http://sodipodi.sourceforge.net/DTD/sodipodi-0.dtd" xmlns:inkscape="http://www.inkscape.org/namespaces/inkscape" width="32" height="32" viewBox="0 0 32 32" version="1.1" id="svg" inkscape:version="0.92.3 (2405546, 2018-03-11)" sodipodi:docname="log.svg">
<defs id="defs" />
<sodipodi:namedview id="base" pagecolor="#fff" bordercolor="#666" borderopacity="1.0" inkscape:pageshadow="2" inkscape:document-units="px" inkscape:current-layer="svg" showgrid="true" units="px" showguides="true" inkscape:guide-bbox="true" gridtolerance="10" inkscape:snap-bbox="true">
<inkscape:grid type="xygrid" id="grid10" originx="16" originy="16" />
<sodipodi:guide position="16,34" orientation="1,0" id="guide3714" inkscape:locked="false" />
<sodipodi:guide position="34,16" orientation="0,1" id="guide3716" inkscape:locked="false" />
</sodipodi:namedview>
<path d="m 13,2 c -0.554,0 -1,0.446 -1,1 v 1 h -1 c -0.554,0 -1,0.446 -1,1 0,0.554 0.446,1 1,1 H 21 C 21.554,6 22,5.554 22,5 22,4.446 21.554,4 21,4 H 20 V 3 C 20,2.446 19.554,2 19,2 Z M 6,4 C 5,4 4,5 4,6 v 22 c 0,1 1,2 2,2 h 20 c 1,0 2,-1 2,-2 V 6 C 28,5 27,4 26,4 h -2 v 2 c 0,1 -1,2 -2,2 H 10 C 9,8 8,7 8,6 V 4 Z m 2,6 H 24 V 28 H 8 Z m 2,2 v 2 h 2 v -2 z m 4,0 v 2 h 8 v -2 z m -4,4 v 2 h 2 v -2 z m 4,0 v 2 h 8 v -2 z m -4,4 v 2 h 2 v -2 z m 4,0 v 2 h 8 v -2 z m -4,4 v 2 h 2 v -2 z m 4,0 v 2 h 8 v -2 z" id="p" inkscape:connector-curvature="0" />
</svg>
