<?xml version="1.0" encoding="UTF-8" standalone="no"?>
<!-- Created with Inkscape (http://www.inkscape.org/) -->

<svg xmlns:svg="http://www.w3.org/2000/svg" xmlns="http://www.w3.org/2000/svg" xmlns:sodipodi="http://sodipodi.sourceforge.net/DTD/sodipodi-0.dtd" xmlns:inkscape="http://www.inkscape.org/namespaces/inkscape" width="32" height="32" viewBox="0 0 32 32" version="1.1" id="svg" inkscape:version="0.92.3 (2405546, 2018-03-11)" sodipodi:docname="plugins.svg">
<defs id="defs" />
<sodipodi:namedview id="base" pagecolor="#fff" bordercolor="#666" borderopacity="1.0" inkscape:pageshadow="2" inkscape:document-units="px" inkscape:current-layer="svg" showgrid="true" units="px" showguides="true" inkscape:guide-bbox="true" gridtolerance="10">
<inkscape:grid type="xygrid" id="grid10" originx="16" originy="16" />
<sodipodi:guide position="16,34" orientation="1,0" id="guide3714" inkscape:locked="false" />
<sodipodi:guide position="34,16" orientation="0,1" id="guide3716" inkscape:locked="false" />
</sodipodi:namedview>
<path inkscape:connector-curvature="0" id="p" d="M 2,2 V 16 29.999999 H 16 30 V 16 2 H 16 Z m 2,2 h 12 v 3 c 0,2.88207 -2,0 -4,0 -1.498195,0 -2,1.343146 -2,3 0,1.656854 0.501805,3 2,3 2,0 4,-2.854404 4,0 v 3 h 3 c 2.854404,0 0,-2 0,-4 0,-1.498195 1.343146,-2 3,-2 1.656854,0 3,0.501805 3,2 0,2 -2.88207,4 0,4 h 3 V 27.999999 H 16 v -2.900391 c 0,-2.88207 2,0 4,0 1.498195,0 2,-1.343146 2,-3 0,-1.656854 -0.501805,-3 -2,-3 -2,0 -4,2.854404 -4,0 V 16 h -3 c -2.854404,0 0,2 0,3.999999 0,1.498195 -1.343146,2 -3,2 -1.656854,0 -3,-0.501805 -3,-2 C 7,18 9.88207,16 7,16 H 4 Z" />
</svg>
