<?xml version="1.0" encoding="UTF-8" standalone="no"?>
<!-- Created with Inkscape (http://www.inkscape.org/) -->

<svg xmlns:svg="http://www.w3.org/2000/svg" xmlns="http://www.w3.org/2000/svg" xmlns:sodipodi="http://sodipodi.sourceforge.net/DTD/sodipodi-0.dtd" xmlns:inkscape="http://www.inkscape.org/namespaces/inkscape" width="32" height="32" viewBox="0 0 32 32" version="1.1" id="svg" inkscape:version="0.92.3 (2405546, 2018-03-11)" sodipodi:docname="report.svg">
<defs id="defs" />
<sodipodi:namedview id="base" pagecolor="#fff" bordercolor="#666" borderopacity="1.0" inkscape:pageshadow="2" inkscape:document-units="px" inkscape:current-layer="svg" showgrid="true" units="px" showguides="true" inkscape:guide-bbox="true" gridtolerance="10" inkscape:snap-bbox="true">
<inkscape:grid type="xygrid" id="grid10" originx="16" originy="16" />
<sodipodi:guide position="16,34" orientation="1,0" id="guide3714" inkscape:locked="false" />
<sodipodi:guide position="34,16" orientation="0,1" id="guide3716" inkscape:locked="false" />
</sodipodi:namedview>
<path d="M 4 2 L 4 6 L 2 6 L 2 8 L 4 8 L 4 12 L 2 12 L 2 14 L 4 14 L 4 18 L 2 18 L 2 20 L 4 20 L 4 24 L 2 24 L 2 26 L 4 26 L 4 30 L 28 30 C 29 30 30 29 30 28 L 30 4 C 30 3 29 2 28 2 L 4 2 z M 6 4 L 10 4 L 10 28 L 6 28 L 6 26 L 8 26 L 8 24 L 6 24 L 6 20 L 8 20 L 8 18 L 6 18 L 6 14 L 8 14 L 8 12 L 6 12 L 6 8 L 8 8 L 8 6 L 6 6 L 6 4 z M 14 6 L 26 6 L 26 10 L 14 10 L 14 6 z " id="p" />
</svg>
