<?xml version="1.0" encoding="UTF-8" standalone="no"?>
<!-- Created with Inkscape (http://www.inkscape.org/) -->

<svg xmlns:dc="http://purl.org/dc/elements/1.1/" xmlns:cc="http://creativecommons.org/ns#" xmlns:rdf="http://www.w3.org/1999/02/22-rdf-syntax-ns#" xmlns:svg="http://www.w3.org/2000/svg" xmlns="http://www.w3.org/2000/svg" xmlns:sodipodi="http://sodipodi.sourceforge.net/DTD/sodipodi-0.dtd" xmlns:inkscape="http://www.inkscape.org/namespaces/inkscape" width="32" height="32" viewBox="0 0 32 32" version="1.1" id="svg" inkscape:version="0.92.3 (2405546, 2018-03-11)" sodipodi:docname="__src.svg">
<metadata id="metadata8">
<rdf:RDF>
<cc:Work rdf:about="">
<dc:format>image/svg+xml</dc:format>
<dc:type rdf:resource="http://purl.org/dc/dcmitype/StillImage" />
<dc:title></dc:title>
</cc:Work>
</rdf:RDF>
</metadata>
<defs id="defs" />
<sodipodi:namedview id="base" pagecolor="#fff" bordercolor="#666" borderopacity="1.0" inkscape:pageshadow="2" inkscape:document-units="px" inkscape:current-layer="svg" showgrid="true" units="px" showguides="true" inkscape:guide-bbox="true">
<inkscape:grid type="xygrid" id="grid10" originx="16" originy="16" />
<sodipodi:guide position="16,34" orientation="1,0" id="guide3714" inkscape:locked="false" />
<sodipodi:guide position="34,16" orientation="0,1" id="guide3716" inkscape:locked="false" />
</sodipodi:namedview>
<path id="path71" inkscape:connector-curvature="0" d="M 4,2 V 30 H 28 V 12 H 18 V 2 Z m 16,0 v 8 h 8 z m -4.7,8 c 1.471605,-0.0076 0.376152,3.384145 0.2,5 0.745,2.16 2.047,3.489 3.8,4.6 1.59837,-0.218045 3.366132,-0.08251 4.6,0.7 0.71172,0.470595 -0.106269,1.429 -1.1,1.4 -1.402,-0.058 -2.722,-0.551 -3.9,-1.1 -2.302,0.25 -4.319,0.685 -6.1,1.3 C 11.206,24.629 9.9260004,26 9,26 8.161,25.916 7.861,25.387 8,25 c 0.6865473,-1.58054 2.20374,-2.552247 3.3,-2.9 1.259,-2.139 2.646,-4.806 3.3,-7 C 14.152821,13.554713 13.189041,10 15.3,10 Z m -0.1,0.7 c -0.458,0.015 -0.333,1.506 0,2.1 0.332,-0.804 0.407,-2.088 0,-2.1 z m 0.1,6 c -0.58,1.704 -1.178,2.883 -2,4.4 1.405,-0.562 2.848,-1.018 4.4,-1.3 -0.947,-0.977 -1.861,-2.018 -2.4,-3.1 z m 5.4,3.7 c 0.711,0.406 1.878,0.674 2.7,0.5 -0.739,-0.425 -2.086,-0.69 -2.7,-0.5 z m -9.6,2.3 C 10.036,23.306 9.111,24.111686 9,25 c 0.9620794,-0.116678 1.320022,-0.907 2.1,-2.3 z" />
</svg>
