<?xml version="1.0" encoding="UTF-8" standalone="no"?>
<!-- Created with Inkscape (http://www.inkscape.org/) -->

<svg xmlns:svg="http://www.w3.org/2000/svg" xmlns="http://www.w3.org/2000/svg" xmlns:sodipodi="http://sodipodi.sourceforge.net/DTD/sodipodi-0.dtd" xmlns:inkscape="http://www.inkscape.org/namespaces/inkscape" width="32" height="32" viewBox="0 0 32 32" version="1.1" id="svg" inkscape:version="0.92.3 (2405546, 2018-03-11)" sodipodi:docname="save-as.svg">
<defs id="defs" />
<sodipodi:namedview id="base" pagecolor="#fff" bordercolor="#666" borderopacity="1.0" inkscape:pageshadow="2" inkscape:document-units="px" inkscape:current-layer="svg" showgrid="true" units="px" showguides="true" inkscape:guide-bbox="true">
<inkscape:grid type="xygrid" id="grid10" originx="16" originy="16" />
<sodipodi:guide position="16,34" orientation="1,0" id="guide3714" inkscape:locked="false" />
<sodipodi:guide position="34,16" orientation="0,1" id="guide3716" inkscape:locked="false" />
</sodipodi:namedview>
<path d="m 2,2 v 14 l 4,0.09961 c 0,-1.108 0.892,-2 2,-2 h 16 c 1.108,0 2,0.892 2,2 V 28 h -4 v 2 h 4 4 V 6 L 26,2 Z m 6,2 h 16 v 7 c 0,0.554 -0.446,1 -1,1 H 9 C 8.446,12 8,11.554 8,11 Z m 10,1 v 6 h 4 V 5 Z m -6,11 v 16 h 2 V 16 Z M 0,18 V 30 H 10 V 28 H 2 v -8 h 8 v -2 z m 16,0 v 2 h 2 v 8 h -2 v 2 h 4 V 18 Z M 4,22 v 4 h 6 v -4 z" id="p" inkscape:connector-curvature="0" />
</svg>
