<?xml version="1.0" encoding="UTF-8" standalone="no"?>
<!-- Created with Inkscape (http://www.inkscape.org/) -->

<svg xmlns:dc="http://purl.org/dc/elements/1.1/" xmlns:cc="http://creativecommons.org/ns#" xmlns:rdf="http://www.w3.org/1999/02/22-rdf-syntax-ns#" xmlns:svg="http://www.w3.org/2000/svg" xmlns="http://www.w3.org/2000/svg" xmlns:sodipodi="http://sodipodi.sourceforge.net/DTD/sodipodi-0.dtd" xmlns:inkscape="http://www.inkscape.org/namespaces/inkscape" width="32" height="32" viewBox="0 0 32 32" version="1.1" id="svg" inkscape:version="0.92.3 (2405546, 2018-03-11)" sodipodi:docname="search.svg">
<defs id="defs" />
<sodipodi:namedview id="base" pagecolor="#fff" bordercolor="#666" borderopacity="1.0" inkscape:pageshadow="2" inkscape:document-units="px" inkscape:current-layer="svg" showgrid="true" units="px" showguides="true" inkscape:guide-bbox="true" gridtolerance="10">
<inkscape:grid type="xygrid" id="grid10" originx="16" originy="16" />
<sodipodi:guide position="16,34" orientation="1,0" id="guide3714" inkscape:locked="false" />
<sodipodi:guide position="34,16" orientation="0,1" id="guide3716" inkscape:locked="false" />
</sodipodi:namedview>
<metadata id="metadata10">
<rdf:RDF>
<cc:Work rdf:about="">
<dc:title></dc:title>
<dc:format>image/svg+xml</dc:format>
<dc:type rdf:resource="http://purl.org/dc/dcmitype/StillImage" />
</cc:Work>
</rdf:RDF>
</metadata>
<path inkscape:connector-curvature="0" id="p" d="M 12,2.0000005 C 6.4771525,2.0000005 2,6.477153 2,12 c 0,5.522847 4.4771525,10 10,10 2.165486,-0.0045 4.270996,-0.6962 6,-2 l 9,10 3,-3 -10,-9 c 1.302405,-1.729494 1.99662,-3.83496 2,-6 C 22,6.477153 17.522847,2.0000005 12,2.0000005 Z m 0,3 c 3.865993,0 7,3.1340068 7,6.9999995 0,3.865993 -3.134007,7 -7,7 C 8.1340068,19 5,15.865993 5,12 5,8.1340073 8.1340068,5.0000005 12,5.0000005 Z" />
</svg>
