<?xml version="1.0" encoding="UTF-8" standalone="no"?>
<!-- Created with Inkscape (http://www.inkscape.org/) -->

<svg xmlns:svg="http://www.w3.org/2000/svg" xmlns="http://www.w3.org/2000/svg" xmlns:sodipodi="http://sodipodi.sourceforge.net/DTD/sodipodi-0.dtd" xmlns:inkscape="http://www.inkscape.org/namespaces/inkscape" width="32" height="32" viewBox="0 0 32 32" version="1.1" id="svg" inkscape:version="0.92.3 (2405546, 2018-03-11)" sodipodi:docname="sync.svg">
<defs id="defs" />
<sodipodi:namedview id="base" pagecolor="#fff" bordercolor="#666" borderopacity="1.0" inkscape:pageshadow="2" inkscape:document-units="px" inkscape:current-layer="svg" showgrid="true" units="px" showguides="true" inkscape:guide-bbox="true" gridtolerance="10">
<inkscape:grid type="xygrid" id="grid10" originx="16" originy="16" />
<sodipodi:guide position="16,34" orientation="1,0" id="guide3714" inkscape:locked="false" />
<sodipodi:guide position="34,16" orientation="0,1" id="guide3716" inkscape:locked="false" />
</sodipodi:namedview>
<path inkscape:connector-curvature="0" id="p" d="M 28,4.9999999 25,2.0000001 V 8.0999999 C 22.787317,5.5806159 19.555333,4.0040892 16,4.0000001 10.920066,4.0063001 6.3933091,7.2105879 4.7000001,12 h 4.399609 C 10.524743,9.5315709 13.149722,8.0078279 16,7.9999999 18.485687,8.0017999 20.717831,9.1511769 22.2,11 H 16 l 3,3 h 9 z M 27.3,20 H 22.900391 C 21.475257,22.468429 18.850278,23.992172 16,24 13.514313,23.9982 11.282169,22.848826 9.8000001,21 H 16 L 13,18 H 4.0000001 v 9 l 3,3 V 23.9 C 9.2126831,26.419385 12.444667,27.995911 16,28 c 5.079934,-0.0063 9.606692,-3.210587 11.3,-8 z" />
</svg>
