<?xml version="1.0" encoding="UTF-8" standalone="no"?>
<!-- Created with Inkscape (http://www.inkscape.org/) -->

<svg xmlns:svg="http://www.w3.org/2000/svg" xmlns="http://www.w3.org/2000/svg" xmlns:sodipodi="http://sodipodi.sourceforge.net/DTD/sodipodi-0.dtd" xmlns:inkscape="http://www.inkscape.org/namespaces/inkscape" width="32" height="32" viewBox="0 0 32 32" version="1.1" id="svg" inkscape:version="0.92.3 (2405546, 2018-03-11)" sodipodi:docname="tables.svg">
<defs id="defs" />
<sodipodi:namedview id="base" pagecolor="#fff" bordercolor="#666" borderopacity="1.0" inkscape:pageshadow="2" inkscape:document-units="px" inkscape:current-layer="svg" showgrid="true" units="px" showguides="true" inkscape:guide-bbox="true" gridtolerance="10">
<inkscape:grid type="xygrid" id="grid10" originx="16" originy="16" />
<sodipodi:guide position="16,34" orientation="1,0" id="guide3714" inkscape:locked="false" />
<sodipodi:guide position="34,16" orientation="0,1" id="guide3716" inkscape:locked="false" />
</sodipodi:namedview>
<path d="M 2 2 L 2 24 L 4 24 L 4 6 L 26 6 L 26 2 L 2 2 z M 6 8 L 6 30 L 30 30 L 30 8 L 6 8 z M 8 14 L 28 14 L 28 28 L 8 28 L 8 14 z M 10 16 L 10 20 L 16 20 L 16 16 L 10 16 z M 18 16 L 18 20 L 26 20 L 26 16 L 18 16 z M 10 22 L 10 26 L 16 26 L 16 22 L 10 22 z M 18 22 L 18 26 L 26 26 L 26 22 L 18 22 z " id="p" />
</svg>
