<?xml version="1.0" encoding="UTF-8" standalone="no"?>
<!-- Created with Inkscape (http://www.inkscape.org/) -->

<svg xmlns:svg="http://www.w3.org/2000/svg" xmlns="http://www.w3.org/2000/svg" xmlns:sodipodi="http://sodipodi.sourceforge.net/DTD/sodipodi-0.dtd" xmlns:inkscape="http://www.inkscape.org/namespaces/inkscape" width="32" height="32" viewBox="0 0 32 32" version="1.1" id="svg" inkscape:version="0.92.3 (2405546, 2018-03-11)" sodipodi:docname="theme.svg">
<defs id="defs" />
<sodipodi:namedview id="base" pagecolor="#fff" bordercolor="#666" borderopacity="1.0" inkscape:pageshadow="2" inkscape:document-units="px" inkscape:current-layer="svg" showgrid="true" units="px" showguides="true" inkscape:guide-bbox="true">
<inkscape:grid type="xygrid" id="grid10" originx="16" originy="16" />
<sodipodi:guide position="16,34" orientation="1,0" id="guide3714" inkscape:locked="false" />
<sodipodi:guide position="34,16" orientation="0,1" id="guide3716" inkscape:locked="false" />
</sodipodi:namedview>
<path inkscape:connector-curvature="0" id="p" d="M 16,3.9999998 C 8.268014,3.9999998 2.0000002,9.820298 2.0000002,17 2.0059502,21.471255 4.519645,25.625895 8.6,28 h 2.7 C 10.467641,26.913319 10.004058,25.584608 10,24.2 9.999878,20.783854 12.686205,18 16,18 c 3.313795,0 6.000122,2.783854 6,6.2 -0.0046,1.384846 -0.466941,2.713583 -1.3,3.8 h 2.7 C 27.484092,25.628069 29.991937,21.473039 30,17 30,9.820298 23.731986,3.9999998 16,3.9999998 Z m 0,2 c 2.209139,0 4,1.3431458 4,3.0000002 0,1.656854 -1.790861,3 -4,3 -2.209139,0 -4,-1.343146 -4,-3 0,-1.6568544 1.790861,-3.0000002 4,-3.0000002 z M 8.5,10 C 9.880712,10 11,11.119288 11,12.5 11,13.880712 9.880712,15 8.5,15 7.119288,15 6,13.880712 6,12.5 6,11.119288 7.119288,10 8.5,10 Z m 15,0 C 24.880712,10 26,11.119288 26,12.5 26,13.880712 24.880712,15 23.5,15 22.119288,15 21,13.880712 21,12.5 21,11.119288 22.119288,10 23.5,10 Z M 6,16 c 1.10457,0 2,0.895431 2,2 0,1.104569 -0.89543,2 -2,2 C 4.895431,20 4.0000002,19.104569 4.0000002,18 4.0000002,16.895431 4.895431,16 6,16 Z m 20,0 c 1.104569,0 2,0.895431 2,2 0,1.104569 -0.895431,2 -2,2 -1.104569,0 -2,-0.895431 -2,-2 0,-1.104569 0.895431,-2 2,-2 z" />
</svg>
