<?xml version="1.0" encoding="UTF-8" standalone="no"?>
<!-- Created with Inkscape (http://www.inkscape.org/) -->

<svg xmlns:svg="http://www.w3.org/2000/svg" xmlns="http://www.w3.org/2000/svg" xmlns:sodipodi="http://sodipodi.sourceforge.net/DTD/sodipodi-0.dtd" xmlns:inkscape="http://www.inkscape.org/namespaces/inkscape" width="32" height="32" viewBox="0 0 32 32" version="1.1" id="svg" inkscape:version="0.92.3 (2405546, 2018-03-11)" sodipodi:docname="s_rights.svg">
<defs id="defs" />
<sodipodi:namedview id="base" pagecolor="#fff" bordercolor="#666" borderopacity="1.0" inkscape:pageshadow="2" inkscape:document-units="px" inkscape:current-layer="svg" showgrid="true" units="px" showguides="true" gridtolerance="10">
<inkscape:grid type="xygrid" id="grid10" originx="16" originy="16" />
<sodipodi:guide position="16,34" orientation="1,0" id="guide3714" inkscape:locked="false" />
<sodipodi:guide position="34,16" orientation="0,1" id="guide3716" inkscape:locked="false" />
</sodipodi:namedview>
<path id="p" d="M 2.0000005,5.9999997 V 26 H 30 V 5.9999997 Z M 10,10 c 1.000001,10e-7 2.999999,0.5 3,3 -10e-7,2.500021 -0.158981,3.379964 -1,4 -0.499983,0.499982 0,1 0,1 0,0 4,1.367017 4,4 H 4.0000005 C 4.0000005,19.367017 8,18 8,18 8,18 8.499997,17.499982 8,17 7.158998,16.379964 6.999999,15.500021 7,13 c -1e-6,-2.5 1.999996,-3 3,-3 z m 8,0 h 10 v 2 H 18 Z m 0,4 h 8 v 2 h -8 z m 0,4 h 10 v 2 H 18 Z" inkscape:connector-curvature="0" />
</svg>
