<?xml version="1.0" encoding="UTF-8" standalone="no"?>
<!-- Created with Inkscape (http://www.inkscape.org/) -->

<svg xmlns:svg="http://www.w3.org/2000/svg" xmlns="http://www.w3.org/2000/svg" xmlns:sodipodi="http://sodipodi.sourceforge.net/DTD/sodipodi-0.dtd" xmlns:inkscape="http://www.inkscape.org/namespaces/inkscape" width="32" height="32" viewBox="0 0 32 32" version="1.1" id="svg" inkscape:version="0.92.3 (2405546, 2018-03-11)" sodipodi:docname="view.svg">
<defs id="defs" />
<sodipodi:namedview id="base" pagecolor="#fff" bordercolor="#666" borderopacity="1.0" inkscape:pageshadow="2" inkscape:document-units="px" inkscape:current-layer="svg" showgrid="true" units="px" showguides="true" inkscape:guide-bbox="true" gridtolerance="10">
<inkscape:grid type="xygrid" id="grid10" originx="16" originy="16" />
<sodipodi:guide position="16,34" orientation="1,0" id="guide3714" inkscape:locked="false" />
<sodipodi:guide position="34,16" orientation="0,1" id="guide3716" inkscape:locked="false" />
</sodipodi:namedview>
<path inkscape:connector-curvature="0" id="p" d="M 16,8 C 9.2103864,8.005 3.3579194,11.347944 2,16 c 1.3579194,4.652056 7.2103864,7.995023 14,8 6.794751,-4.37e-4 12.64105,-3.344427 14,-8 C 28.64105,11.344428 22.794751,8.000437 16,8 Z m -2,2 a 2,2 0 0 1 2,2 2,2 0 0 1 -2,2 2,2 0 0 1 -2,-2 2,2 0 0 1 2,-2 z m 6.994141,0.681641 C 24.384131,11.648348 27.032624,13.573031 28,16 26.592908,19.530136 21.62837,21.9975 16,22 10.374539,21.9952 5.4063614,19.528314 4.0000004,16 4.9664744,13.575285 7.6158434,11.653128 11.003906,10.685547 A 6,6 0 0 0 10,14 a 6,6 0 0 0 6,6 6,6 0 0 0 6,-6 6,6 0 0 0 -1.005859,-3.318359 z" />
</svg>
