<?xml version="1.0" encoding="UTF-8" standalone="no"?>
<!-- Created with Inkscape (http://www.inkscape.org/) -->

<svg xmlns:svg="http://www.w3.org/2000/svg" xmlns="http://www.w3.org/2000/svg" xmlns:sodipodi="http://sodipodi.sourceforge.net/DTD/sodipodi-0.dtd" xmlns:inkscape="http://www.inkscape.org/namespaces/inkscape" width="32" height="32" viewBox="0 0 32 32" version="1.1" id="svg" inkscape:version="0.92.3 (2405546, 2018-03-11)" sodipodi:docname="wizard.svg">
 <defs id="defs" />
 <sodipodi:namedview id="base" pagecolor="#fff" bordercolor="#666" borderopacity="1.0" inkscape:pageshadow="2" inkscape:document-units="px" inkscape:current-layer="svg" showgrid="true" units="px" showguides="true" inkscape:guide-bbox="true" gridtolerance="10">
  <inkscape:grid type="xygrid" id="grid10" originx="16" originy="16" />
  <sodipodi:guide position="16,34" orientation="1,0" id="guide3714" inkscape:locked="false" />
  <sodipodi:guide position="34,16" orientation="0,1" id="guide3716" inkscape:locked="false" />
 </sodipodi:namedview>
 <path d="M 22,2 V 6 H 20 V 2 Z m 6,2 v 1.5 l -3,3 -1.5,-1.5 3,-3 z m -14.5,0 3,3 -1.5,1.5 -3,-3 V 4 Z M 20,8 24,12 6,30 2,26 Z m 10,2 v 2 h -4 v -2 z m -10,0.4 -5,5 1.5,1.6 5,-5 z M 14,10 v 2 h -4 v -2 z m 11,5.5 3,3 V 20 h -1.5 l -3,-3 z M 22,18 v 4 h -2 v -4 z" id="p" inkscape:connector-curvature="0" />
</svg>
