<?xml version="1.0" encoding="UTF-8" standalone="no"?>
<!-- Created with Inkscape (http://www.inkscape.org/) -->

<svg xmlns:svg="http://www.w3.org/2000/svg" xmlns="http://www.w3.org/2000/svg" xmlns:sodipodi="http://sodipodi.sourceforge.net/DTD/sodipodi-0.dtd" xmlns:inkscape="http://www.inkscape.org/namespaces/inkscape" width="32" height="32" viewBox="0 0 32 32" version="1.1" id="svg" inkscape:version="0.92.3 (2405546, 2018-03-11)" sodipodi:docname="wrench.svg">
 <defs id="defs" />
 <sodipodi:namedview id="base" pagecolor="#fff" bordercolor="#666" borderopacity="1.0" inkscape:pageshadow="2" inkscape:document-units="px" inkscape:current-layer="svg" showgrid="true" units="px" showguides="true" inkscape:guide-bbox="true" gridtolerance="10">
  <inkscape:grid type="xygrid" id="grid10" originx="16" originy="16" />
  <sodipodi:guide position="16,34" orientation="1,0" id="guide3714" inkscape:locked="false" />
  <sodipodi:guide position="34,16" orientation="0,1" id="guide3716" inkscape:locked="false" />
 </sodipodi:namedview>
 <path id="p" d="m 22,1.9999999 c -4.418278,0 -8,3.581722 -8,8.0000001 0.0034,1.132007 0.232251,2.269144 0.7,3.3 0,0 -8.702505,8.697497 -11.7,11.7 -2.88597701,2.890798 1.1089279,6.891072 4,4 L 18.7,17.3 c 1.031603,0.467346 2.167476,0.697443 3.3,0.7 4.418278,0 8,-3.581722 8,-8 V 8.9999999 H 29 L 26,12 21,11 20,5.9999999 l 3,-3 v -1 z M 5.0003159,26 C 5.552601,26 5.999684,26.447715 5.999684,27 5.999684,27.552285 5.552285,28 5,28 4.447715,28 4,27.552285 4,27 4,26.447715 4.4480309,26 5.0003159,26 Z" inkscape:connector-curvature="0" />
</svg>
