<?xml version="1.0" encoding="UTF-8" standalone="no"?>
<!-- Created with Inkscape (http://www.inkscape.org/) -->

<svg xmlns:dc="http://purl.org/dc/elements/1.1/" xmlns:cc="http://creativecommons.org/ns#" xmlns:rdf="http://www.w3.org/1999/02/22-rdf-syntax-ns#" xmlns:svg="http://www.w3.org/2000/svg" xmlns="http://www.w3.org/2000/svg" xmlns:sodipodi="http://sodipodi.sourceforge.net/DTD/sodipodi-0.dtd" xmlns:inkscape="http://www.inkscape.org/namespaces/inkscape" width="20" height="20" viewBox="0 0 20 20" version="1.1" id="svg" inkscape:version="0.92.3 (2405546, 2018-03-11)" sodipodi:docname="field-small-text.svg">
<metadata id="metadata9">
<rdf:RDF>
<cc:Work rdf:about="">
<dc:format>image/svg+xml</dc:format>
<dc:type rdf:resource="http://purl.org/dc/dcmitype/StillImage" />
</cc:Work>
</rdf:RDF>
</metadata>
<defs id="defs" />
<sodipodi:namedview id="base" pagecolor="#fff" bordercolor="#666" borderopacity="1.0" inkscape:pageshadow="2" inkscape:document-units="px" inkscape:current-layer="svg" showgrid="true" units="px" showguides="true" inkscape:guide-bbox="true" gridtolerance="10">
<inkscape:grid type="xygrid" id="grid10" originx="16" originy="16" />
<sodipodi:guide position="16,34" orientation="1,0" id="guide3714" inkscape:locked="false" />
</sodipodi:namedview>
<path style="fill:#000000" sodipodi:nodetypes="cccssscccccsssssscssccsssccsccsss" inkscape:connector-curvature="0" id="path12" d="m 11,2 v 16 h 2 1 c 2.761424,0 5,-2.238576 5,-5 0,-2.761424 -2.238576,-5 -5,-5 H 13 V 2 Z M 1,8 2,10 h 4 c 0.5522847,0 1,0.447715 1,1 0,0.552285 -0.4477153,1 -1,1 H 4 c -1.6568542,0 -3,1.343146 -3,3 0,1.656854 1.3431458,3 3,3 H 9 V 11 C 9,9.343146 7.6568542,8 6,8 Z m 12,2 h 1 c 1.656854,0 3,1.343146 3,3 0,1.656854 -1.343146,3 -3,3 h -1 z m -9,4 h 3 v 2 H 4 C 3.4477153,16 3,15.552285 3,15 3,14.447715 3.4477153,14 4,14 Z" />
</svg>
