<?xml version="1.0" encoding="UTF-8" standalone="no"?>
<!-- Created with Inkscape (http://www.inkscape.org/) -->

<svg xmlns:svg="http://www.w3.org/2000/svg" xmlns="http://www.w3.org/2000/svg" xmlns:sodipodi="http://sodipodi.sourceforge.net/DTD/sodipodi-0.dtd" xmlns:inkscape="http://www.inkscape.org/namespaces/inkscape" width="20" height="20" viewBox="0 0 20 20" version="1.1" id="svg" inkscape:version="0.92.3 (2405546, 2018-03-11)" sodipodi:docname="gear-small.svg">
<defs id="defs" />
<sodipodi:namedview id="base" pagecolor="#fff" bordercolor="#666" borderopacity="1.0" inkscape:pageshadow="2" inkscape:document-units="px" inkscape:current-layer="svg" showgrid="true" units="px" showguides="true" inkscape:guide-bbox="true" gridtolerance="10">
<inkscape:grid type="xygrid" id="grid10" originx="16" originy="16" />
<sodipodi:guide position="16,34" orientation="1,0" id="guide3714" inkscape:locked="false" />
<sodipodi:guide position="34,16" orientation="0,1" id="guide3716" inkscape:locked="false" />
</sodipodi:namedview>
<path d="M 9,0 8,3 6.4,3.6 3.6,2.2 2.3,3.6 3.6,6.4 3,8 0,9 v 2 l 3,1 0.6,1.6 -1.4,2.8 1.4,1.4 2.8,-1.4 1.6,0.6 1,3 h 2 l 1,-3 1.6,-0.6 2.8,1.4 1.4,-1.4 L 16.4,13.6 17,12 20,11 V 9 L 17,8 16.4,6.4 17.8,3.6 16.4,2.2 13.6,3.6 12,3 11,0 Z m 1,6 c 2.209139,0 4,1.790861 4,4 0,2.209139 -1.790861,4 -4,4 C 7.790861,14 6,12.209139 6,10 6,7.790861 7.790861,6 10,6 Z" id="p" inkscape:connector-curvature="0" />
</svg>
